HIERARCHY
ROOT hip
{
  OFFSET 0 0 0
  CHANNELS 6 Xposition Yposition Zposition Zrotation Yrotation Xrotation
  JOINT abdomen
  {
    OFFSET 0 20.6881 -0.73152
    CHANNELS 3 Zrotation Xrotation Yrotation
    JOINT chest
    {
      OFFSET 0 11.7043 -0.48768
      CHANNELS 3 Zrotation Xrotation Yrotation
      JOINT neck
      {
        OFFSET 0 22.1894 -2.19456
        CHANNELS 3 Zrotation Xrotation Yrotation
        JOINT head
        {
          OFFSET -0.24384 7.07133 1.2192
          CHANNELS 3 Zrotation Xrotation Yrotation
          JOINT leftEye
          {
            OFFSET 4.14528 8.04674 8.04672
            CHANNELS 3 Zrotation Xrotation Yrotation
            End Site
            {
              OFFSET 1 0 0
            }
          }
          JOINT rightEye
          {
            OFFSET -3.6576 8.04674 8.04672
            CHANNELS 3 Zrotation Xrotation Yrotation
            End Site
            {
              OFFSET 1 0 0
            }
          }
        }
      }
      JOINT rCollar
      {
        OFFSET -2.68224 19.2634 -4.8768
        CHANNELS 3 Zrotation Xrotation Yrotation
        JOINT rShldr
        {
          OFFSET -8.77824 -1.95073 1.46304
          CHANNELS 3 Zrotation Xrotation Yrotation
          JOINT rForeArm
          {
            OFFSET -28.1742 -1.7115 0.48768
            CHANNELS 3 Zrotation Xrotation Yrotation
            JOINT rHand
            {
              OFFSET -22.5879 0.773209 7.07136
              CHANNELS 3 Zrotation Xrotation Yrotation
              JOINT rThumb1
              {
                OFFSET -1.2192 -0.487915 3.41376
                CHANNELS 3 Zrotation Xrotation Yrotation
                JOINT rThumb2
                {
                  OFFSET -3.37035 -0.52449 3.41376
                  CHANNELS 3 Zrotation Xrotation Yrotation
                  End Site
                  {
                    OFFSET -1.78271 -1.18214 1.43049
                  }
                }
              }
              JOINT rIndex1
              {
                OFFSET -7.75947 0.938293 5.60832
                CHANNELS 3 Zrotation Xrotation Yrotation
                JOINT rIndex2
                {
                  OFFSET -2.54057 -0.884171 1.56538
                  CHANNELS 3 Zrotation Xrotation Yrotation
                  End Site
                  {
                    OFFSET -1.62519 -0.234802 1.16502
                  }
                }
              }
              JOINT rMid1
              {
                OFFSET -8.24714 1.18213 3.41376
                CHANNELS 3 Zrotation Xrotation Yrotation
                JOINT rMid2
                {
                  OFFSET -3.10165 -0.590103 1.0647
                  CHANNELS 3 Zrotation Xrotation Yrotation
                  End Site
                  {
                    OFFSET -2.48547 -0.328903 0.83742
                  }
                }
              }
              JOINT rRing1
              {
                OFFSET -8.82822 0.546677 1.51678
                CHANNELS 3 Zrotation Xrotation Yrotation
                JOINT rRing2
                {
                  OFFSET -2.60934 -0.819778 -0.0198488
                  CHANNELS 3 Zrotation Xrotation Yrotation
                  End Site
                  {
                    OFFSET -2.33842 -0.294052 0.168128
                  }
                }
              }
              JOINT rPinky1
              {
                OFFSET -8.27202 -0.0477905 -0.4584
                CHANNELS 3 Zrotation Xrotation Yrotation
                JOINT rPinky2
                {
                  OFFSET -1.82734 -0.647385 -0.700984
                  CHANNELS 3 Zrotation Xrotation Yrotation
                  End Site
                  {
                    OFFSET -1.69225 -0.51767 -0.607171
                  }
                }
              }
            }
          }
        }
      }
      JOINT lCollar
      {
        OFFSET 2.68224 19.2634 -4.8768
        CHANNELS 3 Zrotation Xrotation Yrotation
        JOINT lShldr
        {
          OFFSET 8.77824 -1.95073 1.46304
          CHANNELS 3 Zrotation Xrotation Yrotation
          JOINT lForeArm
          {
            OFFSET 28.1742 -1.7115 0.48768
            CHANNELS 3 Zrotation Xrotation Yrotation
            JOINT lHand
            {
              OFFSET 22.5879 0.773209 7.07136
              CHANNELS 3 Zrotation Xrotation Yrotation
              JOINT lThumb1
              {
                OFFSET 1.2192 -0.487915 3.41376
                CHANNELS 3 Zrotation Xrotation Yrotation
                JOINT lThumb2
                {
                  OFFSET 3.37035 -0.52449 3.41376
                  CHANNELS 3 Zrotation Xrotation Yrotation
                  End Site
                  {
                    OFFSET 1.78271 -1.18214 1.43049
                  }
                }
              }
              JOINT lIndex1
              {
                OFFSET 7.75947 0.938293 5.60832
                CHANNELS 3 Zrotation Xrotation Yrotation
                JOINT lIndex2
                {
                  OFFSET 2.54057 -0.884171 1.56538
                  CHANNELS 3 Zrotation Xrotation Yrotation
                  End Site
                  {
                    OFFSET 1.62519 -0.234802 1.16502
                  }
                }
              }
              JOINT lMid1
              {
                OFFSET 8.24714 1.18213 3.41376
                CHANNELS 3 Zrotation Xrotation Yrotation
                JOINT lMid2
                {
                  OFFSET 3.10165 -0.590103 1.0647
                  CHANNELS 3 Zrotation Xrotation Yrotation
                  End Site
                  {
                    OFFSET 2.48547 -0.328903 0.83742
                  }
                }
              }
              JOINT lRing1
              {
                OFFSET 8.82822 0.546677 1.51678
                CHANNELS 3 Zrotation Xrotation Yrotation
                JOINT lRing2
                {
                  OFFSET 2.60934 -0.819778 -0.0198488
                  CHANNELS 3 Zrotation Xrotation Yrotation
                  End Site
                  {
                    OFFSET 2.33842 -0.294052 0.168128
                  }
                }
              }
              JOINT lPinky1
              {
                OFFSET 8.27202 -0.0477905 -0.4584
                CHANNELS 3 Zrotation Xrotation Yrotation
                JOINT lPinky2
                {
                  OFFSET 1.82734 -0.647385 -0.700984
                  CHANNELS 3 Zrotation Xrotation Yrotation
                  End Site
                  {
                    OFFSET 1.69225 -0.51767 -0.607171
                  }
                }
              }
            }
          }
        }
      }
    }
  }
  JOINT rButtock
  {
    OFFSET -8.77824 4.35084 1.2192
    CHANNELS 3 Zrotation Xrotation Yrotation
    JOINT rThigh
    {
      OFFSET 0 -1.70687 -2.19456
      CHANNELS 3 Zrotation Xrotation Yrotation
      JOINT rShin
      {
        OFFSET 0 -36.8199 0.73152
        CHANNELS 3 Zrotation Xrotation Yrotation
        JOINT rFoot
        {
          OFFSET 0.73152 -45.1104 -5.12064
          CHANNELS 3 Zrotation Xrotation Yrotation
          End Site
          {
            OFFSET -1.1221 -3.69964 12.103
          }
        }
      }
    }
  }
  JOINT lButtock
  {
    OFFSET 8.77824 4.35084 1.2192
    CHANNELS 3 Zrotation Xrotation Yrotation
    JOINT lThigh
    {
      OFFSET 0 -1.70687 -2.19456
      CHANNELS 3 Zrotation Xrotation Yrotation
      JOINT lShin
      {
        OFFSET 0 -36.8199 0.73152
        CHANNELS 3 Zrotation Xrotation Yrotation
        JOINT lFoot
        {
          OFFSET -0.73152 -45.1104 -5.12064
          CHANNELS 3 Zrotation Xrotation Yrotation
          End Site
          {
            OFFSET 1.1221 -3.69964 12.103
          }
        }
      }
    }
  }
}
MOTION
Frames:	4
Frame Time:	0.03333
0.0 0.0 0.0 0.0 0.0 0.0 0.0 0.0 0.0 0.0 0.0 0.0 0.0 0.0 0.0 0.0 0.0 0.0 0.0 0.0 0.0 0.0 0.0 0.0 0.0 0.0 0.0 0.0 0.0 0.0 0.0 0.0 0.0 0.0 0.0 0.0 0.0 0.0 0.0 0.0 0.0 0.0 0.0 0.0 0.0 0.0 0.0 0.0 0.0 0.0 0.0 0.0 0.0 0.0 0.0 0.0 0.0 0.0 0.0 0.0 0.0 0.0 0.0 0.0 0.0 0.0 0.0 0.0 0.0 0.0 0.0 0.0 0.0 0.0 0.0 0.0 0.0 0.0 0.0 0.0 0.0 0.0 0.0 0.0 0.0 0.0 0.0 0.0 0.0 0.0 0.0 0.0 0.0 0.0 0.0 0.0 0.0 0.0 0.0 0.0 0.0 0.0 0.0 0.0 0.0 0.0 0.0 0.0 0.0 0.0 0.0 0.0 0.0 0.0 0.0 0.0 0.0 0.0 0.0 0.0 0.0 0.0 0.0 0.0 0.0 0.0 0.0 0.0 0.0 0.0 0.0 0.0
0.1116 62.796600000000005 0.1312 179.509641 -67.832886 179.728114 -0.322441 2.621656 0.001328 4.277335 -12.139766 -158.746111 8.41772 -5.291351 137.077771 44.773597 32.754807 108.399275 -162.121646 -3.53069 -22.172292 6.257616 -5.955837 -87.163798 25.978253 63.439035 59.624166 55.188426 -89.331018 41.651374 -3.588872 60.105367 169.471117 165.573561 -0.692546 74.625228 -170.372895 4.545575 61.985537 40.331541 33.505964 -170.385163 156.928513 23.131161 -117.430656 36.90619 74.400276 151.212955 -31.125768 21.706505 -125.963228 -42.291161 43.152969 66.00961 91.328594 2.942377 -90.554858 -15.770819 -4.695709 20.400047 -89.02565 25.896626 -86.698496 -41.737749 -53.175428 -35.776821 84.948134 -81.399492 -169.705666 -3.423472 15.880978 -14.627939 92.315868 83.710336 101.36368 3.358296 26.219175 50.385954 -176.218597 -7.892136 -68.065721 -42.579079 -9.546118 -20.919558 103.079804 -14.420218 -67.589798 -95.396546 71.758953 44.666148 -75.492856 -64.322547 162.484216 13.826533 34.857353 128.756147 86.005563 49.209016 95.146105 24.65611 1.654827 9.111004 124.463573 50.40075 53.881846 8.829541 -31.681009 27.377794 44.74913 -33.145824 61.666797 1.115545 52.977974 -177.254569 -6.8272 -1.336541 -81.847695 -75.138908 2.496591 99.063558 -29.036977 -39.994952 -36.42696 5.300439 46.972323 116.245432 -4.107052 4.12937 -129.485259 -70.375503 -10.013391 98.797134
1.1009 63.6054 -0.27190000000000003 -150.764855 -43.296275 162.372558 6.330044 25.058579 -2.4504 -2.033389 -14.364877 3.043484 19.829159 23.379268 93.994455 -39.163719 10.607542 -116.741807 -10.385444 -4.2852 44.751733 -43.877867 -5.517795 13.644784 -61.968383 -77.339656 -89.09125 -82.056486 -40.678455 -68.636852 7.11554 -31.732806 -114.714165 175.142238 7.08055 138.433992 -168.165664 -14.482683 106.053939 -151.981559 -4.692793 94.893811 -147.016175 -41.879601 110.636799 162.178698 -36.344961 31.947514 -7.450929 32.054534 -30.40126 -165.325954 20.355204 87.26134 29.14818 -6.436062 -46.615334 -101.405657 18.774502 113.172755 22.890749 -7.536433 -7.001871 -93.244293 -27.662239 -78.627738 12.037769 4.970278 -10.798828 152.909698 -23.757775 -128.870931 -129.153494 27.142124 80.137558 19.819298 65.075882 -8.513071 114.928086 42.263095 -69.261864 62.524204 -10.010818 -14.412688 8.322007 -28.745369 11.914494 -112.708224 -32.550415 -33.602231 164.827887 -3.667878 -144.863849 178.460555 -45.030632 -144.464674 48.512247 -73.867699 87.848468 158.537008 -31.090359 -140.670361 -178.876681 72.403859 172.310998 94.212991 -14.061069 -128.734775 8.630774 9.630099 -4.016492 -101.070747 -60.296119 77.938863 132.954502 -66.191132 -3.471545 -105.888452 26.720307 21.139189 -11.576832 14.325634 -0.0 62.51473 -41.991248 -109.190435 -22.167173 -61.680633 83.450002 169.183978 -87.045985 -101.389497
2.7902 68.68560000000001 -0.9789000000000001 -123.203989 -45.019864 148.356887 10.838696 26.377409 -4.453988 2.200453 -14.910837 0.140826 -1.758342 28.262768 45.200722 -29.726665 -43.788905 -92.991239 1.22837 0.921597 73.757935 -59.220714 -9.312134 16.310539 -145.161813 39.269431 150.423432 75.648143 -17.387577 84.895311 -47.321152 -84.927813 18.942663 5.44788 -3.709773 0.091161 78.170394 -74.03126 28.362477 -1.975946 16.914476 -10.200786 -114.999908 -11.536695 89.2535 -147.605454 -79.283664 62.627966 172.614849 -44.917135 152.272301 -165.453018 11.001776 134.045299 -88.102109 -35.316687 -80.631585 98.975842 24.048949 -14.789567 -30.359889 49.44309 125.499858 -41.865744 50.932763 164.588984 166.388067 -48.340685 -169.470301 -36.229068 -3.502788 55.322727 -113.651486 30.614451 54.255552 21.057519 47.752604 -9.2782 69.26878 48.986785 -46.236032 111.411743 -17.541507 -90.143835 -169.468603 -32.632546 -112.459839 46.699845 60.125103 28.479866 29.358804 -45.056621 5.891533 -58.483605 40.795883 26.087818 -60.391237 5.539016 13.609416 178.232917 77.400942 -107.515532 159.801852 17.712281 179.023253 -3.176676 24.246426 -166.161257 174.298122 69.888234 4.444464 115.004717 -38.155192 -54.105177 -144.793187 16.081112 -43.868295 -95.723293 0.162378 -155.230885 -57.405542 26.046344 -6.910918 121.347108 -21.364347 -32.375547 -68.282846 -8.575029 -107.259201 166.257262 16.185918 139.961019
